<svg fill="#ffa142" version="1.1" id="Layer_1" xmlns="http://www.w3.org/2000/svg" xmlns:xlink="http://www.w3.org/1999/xlink" x="0px" y="0px" viewBox="0 0 511.709 511.709" style="enable-background:new 0 0 511.709 511.709;" xml:space="preserve">
<g>
	<polyline style="stroke:#ffa142;stroke-width:15;stroke-miterlimit:10;" points="208.428,462.576 230.528,446.105 &#10;&#9;&#9;290.388,435.956 347.228,393.595 &#9;"/>
	
		<line style="fill:none;stroke:#ffa142;stroke-width:15;stroke-miterlimit:10;" x1="196.398" y1="471.546" x2="150.568" y2="505.695"/>
	<path style="fill:none;stroke:#ffa142;stroke-width:15;stroke-miterlimit:10;" d="M313.691,358.656l39.498-29.435&#10;&#9;&#9;c10.641-7.93,12.839-22.985,4.909-33.626l0,0c-7.93-10.641-22.985-12.839-33.626-4.909l-39.498,29.435&#10;&#9;&#9;c-10.641,7.93-12.839,22.985-4.908,33.626l0,0C287.995,364.388,303.05,366.586,313.691,358.656z"/>
	<path style="fill:none;stroke:#ffa142;stroke-width:15;stroke-miterlimit:10;" d="M347.225,393.6l29.864-22.256&#10;&#9;&#9;c10.641-7.93,12.839-22.985,4.908-33.626l0,0c-7.93-10.641-22.985-12.839-33.626-4.908l-29.864,22.256&#10;&#9;&#9;c-10.641,7.93-12.839,22.985-4.909,33.626l0,0C321.53,399.333,336.584,401.531,347.225,393.6z"/>
	<path style="fill:none;stroke:#ffa142;stroke-width:15;stroke-miterlimit:10;" d="M65.848,392.021l63.582-47.384l11.044-75.658&#10;&#9;&#9;l93.446-69.64l0,0c15.86,21.282,11.465,51.392-9.817,67.252l-27.937,20.82c0,0,25.958,55.78-4.968,78.828"/>
	<path style="fill:none;stroke:#ffa142;stroke-width:15;stroke-miterlimit:10;" d="M167.448,248.875l-68.63-92.09l76.03-56.65&#10;&#9;&#9;l22.4,30.06c11.98,16.07,34.72,19.39,50.79,7.41c9.56-7.12,14.61-18.05,14.61-29.12c0-7.54-2.35-15.15-7.2-21.66l-22.4-30.07&#10;&#9;&#9;l62.07-46.26l54.27,72.82l30.63-22.82c16.07-11.98,38.81-8.66,50.78,7.41c11.98,16.07,8.66,38.81-7.41,50.79l-30.63,22.82&#10;&#9;&#9;l47.09,63.19l-44.72,33.33"/>
	<polyline style="fill:none;stroke:#ffa142;stroke-width:15;stroke-miterlimit:10;" points="196.168,287.415 196.178,287.435 &#10;&#9;&#9;243.548,350.995 383.098,246.995 &#9;"/>
	<g>
		
			<line style="fill:none;stroke:#ffa142;stroke-width:15;stroke-miterlimit:10;" x1="289.633" y1="188.827" x2="301.66" y2="179.864"/>
		
			<line style="fill:none;stroke:#ffa142;stroke-width:15;stroke-miterlimit:10;" x1="313.688" y1="170.9" x2="325.715" y2="161.937"/>
	</g>
</g>
<g>
</g>
<g>
</g>
<g>
</g>
<g>
</g>
<g>
</g>
<g>
</g>
<g>
</g>
<g>
</g>
<g>
</g>
<g>
</g>
<g>
</g>
<g>
</g>
<g>
</g>
<g>
</g>
<g>
</g>
</svg>