<svg id="Capa_1" fill="#ffa142" enable-background="new 0 0 511.996 511.996" height="512" viewBox="0 0 511.996 511.996" width="512" xmlns="http://www.w3.org/2000/svg"><g><path d="m504.496.007h-496.996c-4.142 0-7.5 3.358-7.5 7.5v31.063c0 4.142 3.358 7.5 7.5 7.5h220.181c4.142 0 7.5-3.358 7.5-7.5s-3.358-7.5-7.5-7.5h-212.681v-16.063h481.996v16.063h-236.654c-4.142 0-7.5 3.358-7.5 7.5s3.358 7.5 7.5 7.5h84.208l13.458 26.916c3.045 6.091 10.216 3.606 14.75 4.146v31.409c0 4.142 3.358 7.5 7.5 7.5h8.016v18.586l-50.507 21.301c-3.473 1.465-5.312 5.272-4.318 8.894l8.248 30.078v92.157c0 4.142 3.358 7.5 7.5 7.5h93.167c4.142 0 7.5-3.358 7.5-7.5v-92.157l8.248-30.078c.993-3.62-.844-7.429-4.319-8.894l-50.518-21.302v-18.586h8.036c4.142 0 7.5-3.358 7.5-7.5v-31.408c4.771-.569 11.681 1.953 14.729-4.146l13.458-26.916h57.5c4.142 0 7.5-3.358 7.5-7.5v-31.063c-.002-4.142-3.36-7.5-7.502-7.5zm-69.635 279.551h-78.167v-78.167h16.062v23.562c0 4.142 3.358 7.5 7.5 7.5h31.062c4.142 0 7.5-3.358 7.5-7.5v-23.562h16.042v78.167zm-31.042-78.167v16.062h-16.062v-16.062zm32.822-15h-81.726l-5.264-19.196 46.122-19.452 46.131 19.452zm-32.832-85.35h-16.052v-23.909h16.052zm18.386-38.909h-52.844l-8.031-16.062h68.907z"/><path d="m457.903 310.61h-46.082c-4.142 0-7.5 3.358-7.5 7.5s3.358 7.5 7.5 7.5h46.082c21.556 0 39.093 17.537 39.093 39.093s-17.537 39.093-39.093 39.093h-272.061v-16.062h272.061c12.699 0 23.031-10.332 23.031-23.031s-10.332-23.031-23.031-23.031h-272.061v-16.062h193.318c4.142 0 7.5-3.358 7.5-7.5s-3.358-7.5-7.5-7.5h-53.557v-85.667c0-4.142-3.358-7.5-7.5-7.5h-93.167c-4.142 0-7.5 3.358-7.5 7.5v85.667h-31.594v-178.854c0-4.142-3.358-7.5-7.5-7.5h-70.155v-23.562c0-4.142-3.358-7.5-7.5-7.5h-1.601v-1.601c0-16.245-13.216-29.461-29.461-29.461s-29.462 13.216-29.462 29.461v1.601h-1.601c-4.142 0-7.5 3.358-7.5 7.5v23.562h-23.562c-4.142 0-7.5 3.358-7.5 7.5v193.707c0 4.142 3.358 7.5 7.5 7.5s7.5-3.358 7.5-7.5v-155.144h155.842v233.478h-155.842v-45.672c0-4.142-3.358-7.5-7.5-7.5s-7.5 3.358-7.5 7.5v53.172c0 4.142 3.358 7.5 7.5 7.5h5.193v85.687c0 4.142 3.358 7.5 7.5 7.5 25.9.009 87.044.006 145.456 0 4.142 0 7.5-3.358 7.5-7.5v-85.687h28.756v23.562c0 4.142 3.358 7.5 7.5 7.5h8.031v54.625c0 4.142 3.358 7.5 7.5 7.5h31.062c4.142 0 7.5-3.358 7.5-7.5v-54.625h8.031c4.142 0 7.5-3.358 7.5-7.5v-23.562h93.718v23.562c0 4.142 3.358 7.5 7.5 7.5h8.031v54.625c0 4.142 3.358 7.5 7.5 7.5h31.062c4.142 0 7.5-3.358 7.5-7.5v-54.625h8.031c4.142 0 7.5-3.358 7.5-7.5v-23.562h8.031c29.827 0 54.093-24.266 54.093-54.093s-24.265-54.094-54.092-54.094zm-194.405-78.167h16.062v16.062h-16.062zm-31.062 0h16.062v23.562c0 4.142 3.358 7.5 7.5 7.5h31.062c4.142 0 7.5-3.358 7.5-7.5v-23.562h16.042v78.167h-78.167v-78.167zm-15.531 132.26c0-4.428 3.603-8.031 8.031-8.031s8.031 3.603 8.031 8.031-3.603 8.031-8.031 8.031-8.031-3.603-8.031-8.031zm171.373 0c0 4.428-3.603 8.031-8.031 8.031s-8.031-3.603-8.031-8.031 3.603-8.031 8.031-8.031 8.031 3.603 8.031 8.031zm13.553-8.031h34.488c-1.873 5.016-1.987 10.739 0 16.062h-34.488c1.873-5.016 1.987-10.739 0-16.062zm-43.168 16.062h-34.488c1.873-5.016 1.987-10.739 0-16.062h34.488c-1.872 5.016-1.987 10.739 0 16.062zm-48.04-8.031c0 4.428-3.603 8.031-8.031 8.031s-8.031-3.603-8.031-8.031 3.603-8.031 8.031-8.031 8.031 3.603 8.031 8.031zm-29.616 8.031h-34.488c1.873-5.016 1.987-10.739 0-16.062h34.488c-1.872 5.016-1.987 10.739 0 16.062zm184.927-8.031c0 4.428-3.603 8.031-8.031 8.031s-8.031-3.603-8.031-8.031 3.603-8.031 8.031-8.031 8.031 3.603 8.031 8.031zm-262.582-8.031c-1.873 5.016-1.987 10.739 0 16.062h-17.51v-16.062zm-148.189-265.079c0-7.974 6.487-14.461 14.461-14.461s14.461 6.487 14.461 14.461v1.601h-28.922zm-9.101 16.601h47.125v16.062h-47.125zm-31.062 47.125v-16.062h155.842v16.062zm109.249 341.664h-69.086v-47.125h69.086zm33.9 0h-18.9v-54.625c0-4.142-3.358-7.5-7.5-7.5h-84.086c-4.142 0-7.5 3.358-7.5 7.5v54.625h-12.47v-78.187h130.456zm90.349 0h-16.062v-47.125h16.062zm15.531-62.124h-47.125v-16.062h47.125zm155.311 62.124h-16.062v-47.125h16.062zm15.532-62.124h-47.125v-16.062h47.125z"/><path d="m154.78 287.067v-93.187c0-4.142-3.358-7.5-7.5-7.5h-108.718c-4.142 0-7.5 3.358-7.5 7.5v93.187c0 4.142 3.358 7.5 7.5 7.5h108.718c4.142 0 7.5-3.358 7.5-7.5zm-15-7.5h-93.718v-78.187h93.718z"/><path d="m46.296 310.633c-3.984 0-7.468 3.247-7.468 7.492 0 4.191 3.395 7.5 7.5 7.5 3.609 0 7.5-2.847 7.5-7.5 0-3.716-2.933-7.492-7.532-7.492z"/><path d="m77.389 310.633c-4.217 0-7.501 3.463-7.501 7.492 0 4.128 3.333 7.5 7.5 7.5 4.149 0 7.5-3.348 7.5-7.5 0-4.094-3.314-7.492-7.499-7.492z"/><path d="m108.453 310.633c-4.176 0-7.505 3.413-7.505 7.492 0 4.145 3.366 7.5 7.5 7.5 4.185 0 7.5-3.391 7.5-7.5 0-4.135-3.356-7.492-7.495-7.492z"/><path d="m139.543 310.633c-4.204 0-7.525 3.373-7.525 7.492 0 4.137 3.342 7.5 7.5 7.5 4.12 0 7.5-3.306 7.5-7.5 0-4.03-3.291-7.492-7.475-7.492z"/><path d="m69.625 263.505h15.531c4.142 0 7.5-3.358 7.5-7.5s-3.358-7.5-7.5-7.5h-15.531c-4.142 0-7.5 3.358-7.5 7.5s3.357 7.5 7.5 7.5z"/></g></svg>