<svg id="Layer_1_1_" fill="#ffa142" enable-background="new 0 0 64 64" height="512" viewBox="0 0 64 64" width="512" xmlns="http://www.w3.org/2000/svg"><path d="m19 46c-2.757 0-5 2.243-5 5s2.243 5 5 5 5-2.243 5-5-2.243-5-5-5zm0 8c-1.654 0-3-1.346-3-3s1.346-3 3-3 3 1.346 3 3-1.346 3-3 3z"/><path d="m29 54c.552 0 1-.448 1-1v-4c0-.552-.448-1-1-1l-1.538-.044c-.097-.268-.205-.53-.347-.828l1.077-1.077c.391-.391.391-1.023 0-1.414l-2.829-2.829c-.391-.391-1.023-.391-1.414 0l-1.12 1.056c-.256-.12-.518-.229-.83-.339v-1.525c0-.552-.448-1-1-1h-4c-.552 0-1 .448-1 1l-.044 1.538c-.268.097-.53.205-.828.347l-1.077-1.077c-.391-.391-1.023-.391-1.414 0l-2.829 2.829c-.391.391-.391 1.023 0 1.414l1.056 1.12c-.12.256-.229.518-.339.83h-1.524c-.552 0-1 .448-1 1v4c0 .552.448 1 1 1l1.538.044c.097.268.205.53.347.828l-1.077 1.077c-.391.391-.391 1.023 0 1.414l2.829 2.829c.391.391 1.023.391 1.414 0l1.12-1.056c.256.12.518.229.83.339v1.524c0 .552.448 1 1 1h4c.552 0 1-.448 1-1l.044-1.538c.268-.097.53-.205.828-.347l1.077 1.077c.391.391 1.023.391 1.414 0l2.829-2.829c.391-.391.391-1.023 0-1.414l-1.056-1.12c.12-.256.229-.518.339-.83h1.524zm-3.299 2.287.37.37-1.415 1.415-.37-.37c-.602-.604-1.509-.75-2.308-.375-.199.094-.403.179-.611.253-.83.297-1.367 1.042-1.367 1.896v.524h-2v-.524c0-.854-.537-1.599-1.367-1.896-.209-.075-.414-.16-.612-.253-.799-.376-1.706-.229-2.308.375l-.37.37-1.415-1.415.37-.37c.604-.603.751-1.509.375-2.308-.094-.199-.179-.403-.253-.611-.297-.831-1.042-1.368-1.896-1.368h-.524v-2h.524c.854 0 1.599-.537 1.896-1.367.075-.209.16-.414.253-.612.376-.799.229-1.705-.375-2.308l-.37-.37 1.415-1.415.37.37c.603.604 1.51.751 2.308.375.199-.094.403-.179.611-.253.831-.297 1.368-1.042 1.368-1.896v-.524h2v.524c0 .854.537 1.599 1.367 1.896.209.075.414.16.612.253.8.377 1.706.229 2.308-.375l.37-.37 1.415 1.415-.37.37c-.604.603-.751 1.509-.375 2.308.094.199.179.403.253.611.297.831 1.042 1.368 1.896 1.368h.524v2h-.524c-.854 0-1.599.537-1.896 1.367-.075.209-.16.414-.253.612-.376.799-.229 1.705.374 2.308z"/><path d="m47 39c-4.411 0-8 3.589-8 8s3.589 8 8 8 8-3.589 8-8-3.589-8-8-8zm0 14c-3.309 0-6-2.691-6-6s2.691-6 6-6 6 2.691 6 6-2.691 6-6 6z"/><path d="m61 43-1.651-.027c-.208-.637-.466-1.262-.784-1.881l1.164-1.163c.188-.188.293-.442.293-.707s-.105-.52-.293-.707l-4.243-4.243c-.375-.375-1.039-.375-1.414 0l-1.187 1.148c-.595-.302-1.22-.561-1.884-.774v-1.646c0-.552-.448-1-1-1h-6c-.552 0-1 .448-1 1l-.027 1.651c-.637.208-1.262.466-1.881.784l-1.163-1.164c-.188-.188-.442-.293-.707-.293s-.52.105-.707.293l-4.243 4.243c-.188.188-.293.442-.293.707s.105.52.293.707l1.148 1.187c-.302.595-.561 1.22-.774 1.884h-1.647c-.552 0-1 .448-1 1v6c0 .552.448 1 1 1l1.651.027c.208.637.466 1.262.784 1.88l-1.164 1.164c-.391.391-.391 1.023 0 1.414l4.243 4.243c.391.391 1.023.391 1.414 0l1.187-1.148c.595.302 1.22.561 1.884.774v1.647c0 .552.448 1 1 1h6c.552 0 1-.448 1-1l.027-1.651c.637-.208 1.262-.466 1.88-.784l1.164 1.164c.391.391 1.023.391 1.414 0l4.243-4.243c.391-.391.391-1.023 0-1.414l-1.148-1.187c.302-.595.561-1.22.774-1.884h1.647c.552 0 1-.448 1-1v-6c0-.553-.448-1.001-1-1.001zm-1 6h-.646c-.867 0-1.633.566-1.908 1.408-.175.539-.394 1.067-.649 1.57-.401.79-.259 1.731.354 2.344l.457.457-2.829 2.829-.457-.457c-.613-.614-1.556-.755-2.344-.354-.503.256-1.031.475-1.57.65-.842.274-1.408 1.04-1.408 1.907v.646h-4v-.646c0-.867-.566-1.633-1.408-1.908-.539-.175-1.067-.394-1.57-.649-.791-.402-1.732-.26-2.344.354l-.457.457-2.829-2.829.457-.457c.612-.612.754-1.554.354-2.344-.256-.503-.475-1.031-.65-1.57-.274-.842-1.04-1.408-1.907-1.408h-.646v-4h.646c.867 0 1.633-.566 1.908-1.408.175-.539.394-1.067.649-1.57.401-.79.259-1.732-.354-2.344l-.456-.456 2.828-2.828.456.456c.612.612 1.554.756 2.344.354.503-.256 1.031-.475 1.57-.65.843-.275 1.409-1.041 1.409-1.908v-.646h4v.646c0 .867.566 1.633 1.408 1.908.539.175 1.067.394 1.57.649.789.399 1.731.259 2.344-.354l.456-.456 2.828 2.828-.456.456c-.613.612-.754 1.555-.354 2.344.256.503.475 1.031.65 1.57.275.843 1.041 1.409 1.908 1.409h.646z"/><path d="m14 27v11h2v-10h3c.394 0 .751-.231.912-.59.162-.359.097-.78-.165-1.074l-8-9c-.38-.427-1.115-.427-1.495 0l-8 9c-.261.294-.326.714-.164 1.074.161.359.518.59.912.59h3v15h2v-16c0-.552-.448-1-1-1h-1.773l5.773-6.495 5.773 6.495h-1.773c-.552 0-1 .448-1 1z"/><path d="m35 19v14h2v-13h3c.394 0 .751-.231.912-.59.162-.359.097-.78-.165-1.074l-8-9c-.38-.427-1.115-.427-1.495 0l-8 9c-.261.294-.326.715-.165 1.074.162.359.519.59.913.59h3v20h2v-21c0-.552-.448-1-1-1h-1.773l5.773-6.495 5.773 6.495h-1.773c-.552 0-1 .448-1 1z"/><path d="m56 12v16h2v-15h3c.394 0 .751-.231.912-.59.162-.359.097-.78-.165-1.074l-8-9c-.38-.427-1.115-.427-1.495 0l-8 9c-.261.294-.326.715-.165 1.074.162.359.519.59.913.59h3v17h2v-18c0-.552-.448-1-1-1h-1.773l5.773-6.495 5.773 6.495h-1.773c-.552 0-1 .448-1 1z"/></svg>