<svg height="512" fill="#ffa142" viewBox="0 0 20.448 22.399" width="512" xmlns="http://www.w3.org/2000/svg"><g id="Layer_2" data-name="Layer 2"><g id="Layer_1-2" data-name="Layer 1"><path id="precision" d="m20.118 11.831h-.646a9.29 9.29 0 0 0 -7.491-8.731v-2.762a.339.339 0 0 0 -.185-.3.344.344 0 0 0 -.355.029l-1.212.882-1.214-.884a.339.339 0 0 0 -.539.273v2.755a9.313 9.313 0 0 0 -7.491 8.738c-.291.028-.989-.14-.985.34s.7.312.985.339a9.332 9.332 0 0 0 8.9 8.9c.027.291-.141.99.34.985s.312-.7.339-.985a9.33 9.33 0 0 0 8.9-8.9h.646a.34.34 0 0 0 .008-.679zm-1.324 0h-2.437a6.164 6.164 0 0 0 -5.789-5.792v-1.652l.932-.679a8.614 8.614 0 0 1 7.294 8.123zm-8.565 2.744a2.4 2.4 0 0 1 -.34-4.782v1.559l-.335-.334c-.3-.316-.8.173-.479.479.041.031 1 1.03 1.024.988a.341.341 0 0 0 .369-.075l.915-.913a.34.34 0 0 0 -.481-.479l-.334.333v-1.558a2.4 2.4 0 0 1 -.339 4.782zm-.34-5.467a3.09 3.09 0 0 0 -2.723 2.723h-2.388a5.486 5.486 0 0 1 5.111-5.113zm-2.723 3.4a3.092 3.092 0 0 0 2.723 2.724v2.387a5.5 5.5 0 0 1 -5.111-5.109zm3.4 2.724a3.093 3.093 0 0 0 2.724-2.724h2.387a5.5 5.5 0 0 1 -5.111 5.111zm2.724-3.4a3.092 3.092 0 0 0 -2.724-2.723v-2.391a5.484 5.484 0 0 1 5.111 5.113zm-4.135-10.826.873.638c.3.26.82-.36 1.274-.638v2.005l-1.073.783-1.074-.783zm-4.991 5.1a8.527 8.527 0 0 1 4.785-2.406l.94.686v1.653a6.165 6.165 0 0 0 -5.789 5.792h-2.436a8.541 8.541 0 0 1 2.5-5.725zm0 12.131a8.543 8.543 0 0 1 -2.5-5.727h2.436a6.178 6.178 0 0 0 5.789 5.79v2.437a8.543 8.543 0 0 1 -5.725-2.5zm12.13 0a8.548 8.548 0 0 1 -5.726 2.5v-2.437a6.176 6.176 0 0 0 5.789-5.79h2.437a8.553 8.553 0 0 1 -2.5 5.727z"/></g></g></svg>