<svg id="Layer_1" fill="#ffa142" enable-background="new 0 0 512 512" viewBox="0 0 512 512" xmlns="http://www.w3.org/2000/svg"><path d="m319.58 89.605c0-35.058-28.522-63.579-63.58-63.579s-63.579 28.521-63.579 63.579 28.521 63.579 63.579 63.579 63.58-28.521 63.58-63.579zm-63.58 53.58c-29.543 0-53.579-24.035-53.579-53.579s24.036-53.58 53.579-53.58c29.544 0 53.58 24.035 53.58 53.579s-24.036 53.58-53.58 53.58zm32.089-76.15c1.953 1.952 1.952 5.118 0 7.07l-38.071 38.07c-.977.977-2.256 1.465-3.536 1.465s-2.559-.488-3.536-1.465l-19.035-19.035c-1.953-1.952-1.953-5.118 0-7.07 1.953-1.953 5.118-1.953 7.071 0l15.5 15.499 34.535-34.534c1.955-1.953 5.12-1.953 7.072 0zm197.892 214.826c-.99-11.273-6.739-21.573-15.775-28.26l-77.949-57.67c-8.429-6.235-18.815-8.814-29.252-7.251-3.074.46-6.035 1.27-8.848 2.388 1.737-10.592-.917-21.85-8.272-30.755-13.512-16.361-37.817-18.68-54.179-5.168-16.361 13.514-18.679 37.817-5.167 54.179 6.545 7.926 15.786 12.829 26.019 13.805 1.246.119 2.488.178 3.724.178 4.596 0 9.096-.822 13.334-2.399-.852 4.601-.724 9.158.461 13.418.063.225.141.444.234.658l48.72 111.746c3.638 8.346 10.478 13.668 18.764 14.604 8.573.969 17.434-2.898 22.569-9.853 4.963-6.723 5.728-15.355 2.096-23.686l-10.798-24.766 15.229 16.018v137.371c0 16.297 13.258 29.555 29.554 29.555s29.554-13.258 29.554-29.555v-174.12c.001-.145-.005-.291-.018-.437zm-172.474-68.686c-7.574-.723-14.414-4.352-19.258-10.218-10.001-12.11-8.286-30.1 3.825-40.101 12.111-10.002 30.101-8.286 40.102 3.824 8.476 10.264 8.533 24.749.981 35.017-.607.696-1.194 1.414-1.755 2.157-.931 1.035-1.947 2.015-3.052 2.927-5.867 4.845-13.267 7.116-20.843 6.394zm162.493 243.244c0 10.782-8.772 19.555-19.554 19.555s-19.554-8.772-19.554-19.555v-139.368c0-1.282-.493-2.516-1.376-3.445l-35.539-37.379-18.319-42.016c-1.104-2.53-4.049-3.689-6.582-2.585-2.531 1.104-3.688 4.05-2.585 6.581l18.671 42.824c.001.002.002.003.003.005l22.129 50.756c2.816 6.46 1.025 11.042-.974 13.749-3.005 4.068-8.389 6.423-13.403 5.856-3.331-.377-7.895-2.186-10.72-8.664l-48.57-111.403c-1.628-6.345.416-14.203 5.5-21.119.634-.721 1.232-1.464 1.804-2.222 4.542-5.077 10.68-8.392 17.553-9.419 7.792-1.167 15.543.752 21.826 5.4l77.948 57.67c6.679 4.942 10.951 12.545 11.742 20.886zm-255.706-301.273c-16.362-13.512-40.667-11.193-54.179 5.168-7.355 8.906-10.009 20.164-8.272 30.755-2.813-1.118-5.774-1.928-8.848-2.388-10.434-1.562-20.823 1.015-29.252 7.251l-77.949 57.67c-9.035 6.686-14.785 16.986-15.775 28.26-.013.146-.019.291-.019.438v174.12c0 16.297 13.258 29.555 29.555 29.555 16.296 0 29.554-13.258 29.554-29.555v-137.372l15.229-16.018-10.798 24.766c-3.632 8.33-2.868 16.963 2.096 23.686 5.135 6.954 13.999 10.82 22.569 9.853 8.287-.937 15.126-6.259 18.764-14.604l48.72-111.746c.093-.214.171-.434.234-.658 1.185-4.26 1.314-8.817.462-13.417 4.237 1.577 8.737 2.398 13.334 2.398 1.235 0 2.479-.059 3.725-.178 10.233-.976 19.473-5.879 26.019-13.805 13.511-16.362 11.193-40.667-5.169-54.179zm-47.92 76.184-48.571 111.403c-2.825 6.479-7.389 8.287-10.72 8.664-5.013.561-10.398-1.787-13.403-5.856-1.999-2.707-3.79-7.289-.974-13.749l22.129-50.756c.001-.002.002-.003.003-.005l18.671-42.824c1.104-2.531-.054-5.478-2.585-6.581-2.531-1.104-5.478.054-6.582 2.585l-18.319 42.016-35.539 37.379c-.884.93-1.376 2.163-1.376 3.445v139.368c0 10.782-8.771 19.555-19.554 19.555s-19.555-8.772-19.555-19.555v-173.893c.792-8.341 5.063-15.944 11.742-20.886l77.949-57.67c6.282-4.648 14.031-6.567 21.826-5.4 6.874 1.028 13.013 4.343 17.555 9.422.571.757 1.168 1.498 1.801 2.218 5.085 6.916 7.13 14.774 5.502 21.12zm45.377-28.373c-4.845 5.866-11.684 9.495-19.258 10.218-7.573.724-14.976-1.548-20.842-6.393-1.104-.911-2.119-1.891-3.049-2.924-.563-.746-1.152-1.466-1.761-2.164-7.548-10.268-7.491-24.751.984-35.013 5.625-6.811 13.776-10.334 21.988-10.334 6.388 0 12.814 2.134 18.113 6.51 12.111 10 13.826 27.99 3.825 40.1z"/></svg>