<svg clip-rule="evenodd" fill="#ffa142" fill-rule="evenodd" stroke-linejoin="round" stroke-miterlimit="2" viewBox="0 0 510 510" xmlns="http://www.w3.org/2000/svg"><path d="m356.675 145.399c-105.379 97.624-212.39 146.945-309.666 177.744-4.21 1.333-8.709-1.003-10.042-5.212-1.333-4.21 1.003-8.709 5.212-10.042 95.523-30.244 200.64-78.67 304.115-174.684-2.049-12.966-4.432-47.174 19.874-76.975 19.635-24.075 57.144-45.808 128.45-49.221 2.918-.14 5.68 1.323 7.206 3.815 1.525 2.492 1.57 5.618.118 8.153 0 0-28.005 48.715-35.199 73.555-6.787 23.434-18.399 37.819-31.484 46.521-28.95 19.254-66.122 10.145-78.584 6.346zm12.916-13.038c13.925 3.292 37.576 6.16 56.807-6.63 10.524-7 19.517-18.802 24.976-37.65 5.144-17.76 20.379-47.215 29.518-64.099-55.341 4.982-85.919 22.244-102.325 42.36-14.833 18.187-17.719 38.342-17.549 51.979 12.463-12.386 33.112-31.635 54.367-45.943 3.662-2.466 8.638-1.494 11.104 2.169 2.465 3.662 1.493 8.638-2.169 11.104-21.976 14.793-43.263 35.116-54.729 46.71zm102.329 330.609h23.08c4.418 0 8 3.582 8 8v24.03c0 4.418-3.582 8-8 8h-480c-4.418 0-8-3.582-8-8v-24.03c0-4.418 3.582-8 8-8h23.08v-107.323c0-4.418 3.582-8 8-8h63.587c4.418 0 8 3.582 8 8v107.323h38.507v-171.266c0-4.419 3.581-8 8-8h63.586c4.419 0 8 3.581 8 8v171.266h38.48v-238.008c0-4.418 3.581-8 8-8h63.614c4.418 0 8 3.582 8 8v238.008h38.479v-298.056c0-4.418 3.582-8 8-8h63.587c4.418 0 8 3.582 8 8zm-417.84 0h47.587v-99.323h-47.587zm118.094 0h47.586v-163.266h-47.586zm118.066 0h47.614c0-41.463 0-230.008 0-230.008h-47.614zm118.093 0h47.587v-290.056h-47.587zm-385.333 24.03h464v-8.03h-464zm203.959-306.924c3.82-.434 7.508 1.947 8.592 5.766 1.206 4.248-1.264 8.675-5.512 9.88l-20.728 5.883c-2.337.664-4.85.229-6.828-1.182-1.979-1.411-3.209-3.645-3.344-6.071l-1.192-21.513c-.244-4.409 3.136-8.186 7.545-8.431 4.039-.224 7.548 2.595 8.296 6.46 7.973-14.246 12.511-30.608 12.511-48.005 0-55.152-45.583-99.863-101.649-99.863-6.277 0-12.422.559-18.386 1.631-4.346.781-8.508-2.113-9.289-6.458-.781-4.346 2.113-8.508 6.458-9.289 6.883-1.237 13.974-1.884 21.217-1.884 64.968 0 117.649 51.953 117.649 115.863 0 20.799-5.576 40.327-15.34 57.213zm-204.41-114.786c-3.976.604-7.86-1.871-8.922-5.846-1.14-4.266 1.398-8.654 5.664-9.794l20.816-5.562c2.348-.627 4.853-.154 6.81 1.288 1.956 1.441 3.152 3.693 3.249 6.121l.86 21.53c.176 4.412-3.263 8.136-7.675 8.313-3.852.154-7.181-2.449-8.08-6.05-7.824 14.144-12.271 30.352-12.271 47.573 0 55.153 45.584 99.863 101.65 99.863 6.276 0 12.421-.559 18.386-1.631 4.345-.781 8.508 2.113 9.289 6.459.781 4.345-2.114 8.508-6.459 9.289-6.883 1.236-13.973 1.883-21.216 1.883-64.969 0-117.65-51.953-117.65-115.863 0-20.947 5.656-40.605 15.549-57.573zm102.101 144.023c-47.614 0-86.45-38.836-86.45-86.45s38.836-86.45 86.45-86.45 86.45 38.836 86.45 86.45-38.836 86.45-86.45 86.45zm0-16c38.801 0 70.45-31.648 70.45-70.45s-31.649-70.45-70.45-70.45c-38.802 0-70.45 31.648-70.45 70.45s31.648 70.45 70.45 70.45zm-8-116.035v-4.042c0-4.416 3.584-8 8-8 4.415 0 8 3.584 8 8v3.951c9.377 2.097 18.022 8.124 22.487 18.762 1.708 4.072-.21 8.764-4.281 10.473-4.072 1.708-8.764-.21-10.473-4.281-4.04-9.627-14.839-11.555-22.585-8.508-4.389 1.727-7.948 5.235-7.692 10.387l.001.019c.188 3.989 2.808 6.243 5.89 7.748 3.083 1.506 6.651 2.344 10.017 2.892l.014.002c14.123 2.325 29.567 8.803 31.587 25.591 1.979 16.346-11.124 25.85-24.965 28.425v3.82c0 4.415-3.585 8-8 8-4.416 0-8-3.585-8-8v-3.937c-11.723-2.442-21.81-10.18-24.918-22.666-1.066-4.284 1.546-8.628 5.831-9.695 4.285-1.066 8.629 1.546 9.695 5.831 2.022 8.121 10.273 11.556 18.215 11.359h.018c4.302-.097 9.094-1.154 12.621-3.586 2.403-1.657 4.042-4.136 3.619-7.629l-.001-.009c-.549-4.567-3.686-7.053-7.3-8.695-3.439-1.562-7.345-2.419-10.988-3.019-13.837-2.254-28.542-9.268-29.317-25.675-.617-12.576 7.097-21.836 17.816-26.053 1.518-.597 3.094-1.086 4.709-1.465z"/></svg>